<svg xmlns="http://www.w3.org/2000/svg" viewBox="0 0 512 512">
  <!-- SummitFlow Outrun Style Icon - matches logo-wide-v4.svg -->
  <defs>
    <!-- Sun gradient -->
    <linearGradient id="outrunSun" x1="0%" y1="0%" x2="0%" y2="100%">
      <stop offset="0%" style="stop-color:#ffff00"/>
      <stop offset="50%" style="stop-color:#ff9900"/>
      <stop offset="100%" style="stop-color:#ff0099"/>
    </linearGradient>
    <!-- Sun glow -->
    <radialGradient id="sunGlow" cx="256" cy="220" r="150" gradientUnits="userSpaceOnUse">
      <stop offset="40%" style="stop-color:#ffaa00; stop-opacity:0.8"/>
      <stop offset="70%" style="stop-color:#ff0066; stop-opacity:0.4"/>
      <stop offset="100%" style="stop-color:#ff0066; stop-opacity:0"/>
    </radialGradient>
    <!-- Grid glow -->
    <filter id="gridGlow">
      <feGaussianBlur stdDeviation="3" result="coloredBlur"/>
      <feMerge>
        <feMergeNode in="coloredBlur"/>
        <feMergeNode in="SourceGraphic"/>
      </feMerge>
    </filter>
  </defs>

  <!-- Background -->
  <rect width="512" height="512" rx="96" fill="#0a0015"/>

  <!-- Bright stars -->
  <g fill="#ffffff" opacity="0.8">
    <circle cx="80" cy="80" r="4"/>
    <circle cx="420" cy="60" r="3.5"/>
    <circle cx="60" cy="180" r="3"/>
    <circle cx="450" cy="150" r="4"/>
    <circle cx="150" cy="50" r="3"/>
    <circle cx="380" cy="100" r="3.5"/>
    <circle cx="320" cy="70" r="3"/>
    <circle cx="190" cy="90" r="3.5"/>
    <circle cx="256" cy="120" r="2.5"/>
    <circle cx="350" cy="140" r="2"/>
    <circle cx="120" cy="130" r="2.5"/>
  </g>

  <!-- Sun glow -->
  <ellipse cx="256" cy="220" rx="180" ry="120" fill="url(#sunGlow)"/>

  <!-- Sun -->
  <circle cx="256" cy="220" r="80" fill="url(#outrunSun)"/>

  <!-- Sun scanlines -->
  <g fill="#000000">
    <rect x="176" y="190" width="160" height="5"/>
    <rect x="176" y="205" width="160" height="7"/>
    <rect x="176" y="225" width="160" height="9"/>
    <rect x="176" y="250" width="160" height="12"/>
    <rect x="176" y="280" width="160" height="15"/>
  </g>

  <!-- Mountain range -->
  <polygon points="
    40,320
    80,280 120,300 160,260 200,290
    230,270 256,200 282,260 310,240
    340,280 380,260 420,290 460,270
    472,320
    472,340 40,340"
    fill="#1a0a2e"/>

  <!-- Grid floor -->
  <g stroke="#ff0099" stroke-width="3" filter="url(#gridGlow)">
    <!-- Horizontal lines -->
    <line x1="40" y1="350" x2="472" y2="350"/>
    <line x1="40" y1="380" x2="472" y2="380"/>
    <line x1="40" y1="420" x2="472" y2="420"/>
    <line x1="40" y1="470" x2="472" y2="470"/>
    <!-- Perspective lines -->
    <line x1="256" y1="320" x2="120" y2="472"/>
    <line x1="256" y1="320" x2="200" y2="472"/>
    <line x1="256" y1="320" x2="312" y2="472"/>
    <line x1="256" y1="320" x2="392" y2="472"/>
  </g>
</svg>
