<svg xmlns="http://www.w3.org/2000/svg" viewBox="0 0 100 100" width="100" height="100">
  <defs>
    <linearGradient id="depthGrad" x1="0%" y1="0%" x2="0%" y2="100%">
      <stop offset="0%" style="stop-color:#818cf8"/>
      <stop offset="50%" style="stop-color:#06b6d4"/>
      <stop offset="100%" style="stop-color:#0f766e"/>
    </linearGradient>
  </defs>

  <!-- Smooth gradient with sharp peaks -->

  <polygon points="50,12 52,16 48,16" fill="#c4b5fd" opacity="0.2"/>
  <polygon points="50,15 54,21 46,21" fill="#a78bfa" opacity="0.28"/>
  <polygon points="50,19 57,27 43,27" fill="#8b5cf6" opacity="0.36"/>
  <polygon points="50,24 61,35 39,35" fill="#7c3aed" opacity="0.44"/>
  <polygon points="50,30 66,44 34,44" fill="#6366f1" opacity="0.52"/>
  <polygon points="50,37 72,55 28,55" fill="#06b6d4" opacity="0.64"/>
  <polygon points="50,45 80,68 20,68" fill="#0891b2" opacity="0.78"/>
  <polygon points="50,54 90,85 10,85" fill="#0f766e" opacity="0.92"/>
  <polygon points="50,65 100,100 0,100" fill="#134e4a"/>
</svg>
